<?xml version="1.0" encoding="UTF-8"?>
<svg version="1.1" viewBox="0 0 2048 1543" width="1280" height="1280" xmlns="http://www.w3.org/2000/svg">
<path transform="translate(1015,40)" d="m0 0 6 2 52 30 24 14 26 15 24 14 26 15 24 14 26 15 24 14 26 15 24 14 52 30 24 14 26 15 24 14 26 15 24 14 26 15 1 2v558l-3 3-52 30-24 14-26 15-24 14-52 30-24 14-26 15-24 14-52 30-24 14-26 15-24 14-52 30-24 14-26 15-5-2-25-14-17-10-26-15-24-14-52-30-24-14-26-15-24-14-26-15-24-14-52-30-24-14-26-15-24-14-52-30-29-17-4-3v-560l9-6 28-16 24-14 52-30 24-14 26-15 24-14 26-15 24-14 52-30 24-14 52-30 24-14 26-15 24-14 26-15zm-2 206-16 2-12 5-9 7-7 7-9 14-12 28-18 43-17 40-18 43-76 180-18 43-17 40-18 43-17 40-18 43-7 17-1 4v18l4 10 4 6 4 5 11 7 11 3h12l11-3 10-6 5-4 7-11 10-23 34-82 15-36 1-2 309-1 3 9 17 41 20 48 17 41 6 11 6 7 11 7 9 3h19l10-4 9-6 8-11 4-12v-13l-4-13-19-45-17-40-18-43-20-47-15-36-17-40-18-43-17-40-19-45-13-31-17-40-18-43-19-45-9-20-8-11-8-8-12-7-10-3z" fill="#27ACE3"/>
<path transform="translate(1016,355)" d="m0 0 2 1 8 20 20 48 34 82 19 46 15 36 19 46 6 14v2h-245l3-9 57-138 15-36 19-46 17-41 10-24z" fill="#27ACE3"/>
<path transform="translate(490,1195)" d="m0 0h15l10 5 7 9 10 23 18 43 17 40 18 43 17 40 18 43 5 14-1 7-5 8-5 3-4 1h-7l-8-4-6-8-18-43-7-17h-133l-15 37-11 25-7 8-6 2h-8l-6-3-6-7-1-3v-9l10-25 57-135 17-40 17-41 7-10 5-4zm7 47-11 25-8 20-17 41-15 36-1 4 1 1h104l-3-9-15-37-18-43-15-37z" fill="#28ACE3"/>
<path transform="translate(840,1182)" d="m0 0 8 1 5 3 5 6 2 5v263l-4 8-4 4-6 2h-9l-7-4-5-6-1-3-1-13-11 10-13 8-14 6-20 4h-17l-16-3-15-6-14-8-13-11-10-12-8-14-6-16-4-19-1-20 3-22 5-16 5-12 7-11 9-11h2v-2l10-8 13-8 12-5 16-4h27l14 3 13 5 14 9 12 10 1-99 4-8 7-5zm-79 118-17 2-13 5-13 9-7 9-8 16-4 14-1 6v21l4 17 7 16 7 10 12 9 11 5 12 3h21l16-4 16-8 13-10 7-7v-83l-5-6-13-10-12-7-15-5z" fill="#27ACE3"/>
<path transform="translate(1232,1267)" d="m0 0h26l17 4 11 5 11 6 11 9 9 9 7 10 8 16 5 16 3 19v20l-2 14-5 18-9 19-8 10-9 10-11 8-10 6-16 6-9 2-10 1h-13l-14-2-15-5-13-7-13-10-4-4-1 96h-36v-261l4-8 8-5h12l7 4 4 6 1 3v13l11-9 8-6 16-8 13-4zm4 33-14 2-14 5-11 6-14 11-5 5v85h2v2l11 9 10 7 16 7 14 3h19l13-3 12-6 9-7 6-7 8-15 4-13 2-12v-15l-3-17-7-17-9-13-12-9-12-5-14-3z" fill="#27ACE3"/>
<path transform="translate(986,1267)" d="m0 0h26l15 3 13 5 11 6 12 11 7 9 7 14 4 16 1 12v114l-3 9-7 6-6 2-9-1-6-4-4-5-2-10 1-7-17 13-15 8-15 5-11 2h-27l-16-4-12-6-12-11-7-11-5-14-1-7v-12l4-16 6-11 9-10 13-9 14-6 18-4 9-1h65l-2-19-4-12-4-6-7-6-10-5-11-3h-29l-17 3-23 6h-7l-7-4-4-8v-7l3-6 6-5 19-7 21-5zm0 115-17 3-10 4-9 7-5 10-1 8 2 10 6 10 9 6 7 3 16 2 17-2 12-4 15-8 10-8 7-6 1-2v-33z" fill="#28ACE3"/>
<path transform="translate(1428,1231)" d="m0 0 5 1 4 4v35h50l6 4 4 6v10l-4 6-5 4-8 1h-43l1 125 3 9 5 4 9 3h14l9-2h11l6 3 4 5 1 3v7l-3 6-5 4-14 5-12 2h-18l-15-3-10-4-9-7-7-9-5-14-1-8v-129h-30l-5-4-1-5 4-6 24-24 8-7 22-22z" fill="#27ACE3"/>
<path transform="translate(1714,1261)" d="m0 0 9 1 21 9 35 16 36 16 42 19 26 12 8 7 3 6 1 9-2 9-4 6-7 6-19 9-36 16-35 16-58 26-12 5h-9l-6-4-4-5-1-3v-8l4-7 8-5 26-12 81-36 30-13-1-2-72-32-40-18-27-12-7-6-2-5v-8l3-6 5-4z" fill="#BCB9B7"/>
<path transform="translate(313,1261)" d="m0 0 8 1 6 4 4 8-1 9-4 6-8 5-41 18-40 18-54 24h-3v2l5 1 35 16 41 18 60 27 5 3 4 6 1 9-4 8-3 3-5 2h-7l-13-5-17-8-29-13-40-18-35-16-27-12-9-8-3-6-1-4v-8l3-9 7-7 25-12 36-16 35-16 29-13 36-16z" fill="#BCB9B7"/>
<path transform="translate(1641,1171)" d="m0 0h11l6 4 4 7v9l-12 36-27 80-15 43-18 54-14 41-17 50-4 8-6 5-2 1h-10l-5-3-5-6-1-3v-7l14-43 15-43 12-36 22-65 14-41 19-56 9-25 4-6 3-3z" fill="#BCB9B7"/>
</svg>
